<svg xmlns="http://www.w3.org/2000/svg" width="750" height="1000" viewBox="0 0 750 1000">
    <defs>
      <linearGradient id="pt" x1="0" y1="0" x2="0" y2="1">
        <stop offset="0" stop-color="#EFDFC6"/>
        <stop offset="1" stop-color="#C9A464" stop-opacity="0.6"/>
      </linearGradient>
      <radialGradient id="halo" cx="0.5" cy="0.35" r="0.55">
        <stop offset="0" stop-color="#FBF6EF" stop-opacity="0.85"/>
        <stop offset="1" stop-color="#FBF6EF" stop-opacity="0"/>
      </radialGradient>
      
  <filter id="g8" x="0" y="0" width="100%" height="100%">
    <feTurbulence type="fractalNoise" baseFrequency="0.9" numOctaves="2" result="n"/>
    <feColorMatrix in="n" type="matrix" values="0 0 0 0 0  0 0 0 0 0  0 0 0 0 0  0 0 0 0.04 0"/>
    <feComposite operator="over" in2="SourceGraphic"/>
  </filter>
    </defs>
    <rect width="750" height="1000" fill="url(#pt)"/>
    <rect width="750" height="1000" fill="url(#halo)"/>
    <path d="M0 750 Q 187.5 700, 375 735 T 750 715 L 750 1000 L 0 1000 Z" fill="#A8AD91" opacity="0.4"/>
    <circle cx="375" cy="340" r="72" fill="#4A3222" opacity="0.6"/>
    <path d="M 375 420 C 225 520, 225 750, 255.00000000000003 1000 L 495 1000 C 525 750, 525 520, 375 420 Z" fill="#4A3222" opacity="0.55"/>
    <circle cx="465" cy="620" r="26" fill="#FBF6EF" opacity="0.85"/>
    <circle cx="450" cy="660" r="18" fill="#A8AD91" opacity="0.7"/>
    <circle cx="547" cy="780" r="22" fill="#C9A464" opacity="0.10"/>
    <circle cx="547" cy="780" r="5.6" fill="#C9A464" opacity="0.56"/><circle cx="91" cy="904" r="12" fill="#C9A464" opacity="0.10"/>
    <circle cx="91" cy="904" r="3.0" fill="#C9A464" opacity="0.37"/><circle cx="307" cy="671" r="21" fill="#C9A464" opacity="0.10"/>
    <circle cx="307" cy="671" r="5.1" fill="#C9A464" opacity="0.70"/><circle cx="75" cy="846" r="19" fill="#C9A464" opacity="0.10"/>
    <circle cx="75" cy="846" r="4.8" fill="#C9A464" opacity="0.37"/><circle cx="248" cy="669" r="18" fill="#C9A464" opacity="0.10"/>
    <circle cx="248" cy="669" r="4.4" fill="#C9A464" opacity="0.74"/><circle cx="66" cy="608" r="9" fill="#C9A464" opacity="0.10"/>
    <circle cx="66" cy="608" r="2.4" fill="#C9A464" opacity="0.55"/>
    <rect width="750" height="1000" filter="url(#g8)" fill="none"/></svg>